<?xml version="1.0" standalone="no"?>
<!DOCTYPE svg PUBLIC "-//W3C//DTD SVG 20010904//EN"
 "http://www.w3.org/TR/2001/REC-SVG-20010904/DTD/svg10.dtd">
<svg version="1.0" xmlns="http://www.w3.org/2000/svg"
 width="704.000000pt" height="699.000000pt" viewBox="0 0 704.000000 699.000000"
 preserveAspectRatio="xMidYMid meet">

<g transform="translate(0.000000,699.000000) scale(0.100000,-0.100000)"
fill="#000000" stroke="none">
<path d="M1263 4803 c3 -10 8 -45 12 -78 3 -33 8 -72 11 -87 l6 -28 -229 -2
-228 -3 0 -125 0 -125 563 -3 562 -2 0 -100 0 -100 -530 0 -530 0 0 -125 0
-125 530 0 530 0 0 -95 0 -95 -530 0 -530 0 0 -130 0 -130 530 0 530 0 0 -115
0 -115 -562 -2 -563 -3 0 -125 0 -125 525 -5 525 -5 -96 -95 c-143 -142 -319
-242 -537 -306 -100 -29 -246 -54 -314 -54 l-47 0 -47 -146 c-25 -80 -44 -148
-41 -151 7 -6 248 24 342 43 247 51 485 145 663 263 94 62 242 195 283 255
l23 34 96 -96 c53 -54 136 -126 185 -160 118 -84 339 -192 491 -242 112 -36
345 -90 392 -90 15 0 38 32 96 134 42 74 76 136 76 139 0 2 -33 7 -74 11 -372
34 -756 197 -966 410 l-54 56 527 0 527 0 0 130 0 130 -565 0 -565 0 0 115 0
115 528 2 527 3 0 125 0 125 -527 3 -528 2 0 95 0 95 530 0 530 0 0 125 0 125
-530 0 -530 0 0 100 0 100 565 0 565 0 0 130 0 130 -226 0 -227 0 7 63 c4 34
9 81 12 105 l6 42 -166 0 -166 0 0 -27 c0 -16 -5 -63 -12 -105 l-11 -78 -507
0 -506 0 -15 103 -14 102 -163 3 c-153 2 -163 1 -159 -15z"/>
<path d="M3775 4757 c-3 -7 -4 -554 -3 -1217 3 -1191 3 -1205 23 -1240 44 -75
-50 -70 1283 -70 l1192 0 0 1213 c0 1372 7 1260 -80 1305 l-44 22 -1183 0
c-944 0 -1185 -3 -1188 -13z m2185 -1257 l0 -1010 -940 0 -940 0 0 1003 c0
552 3 1007 7 1010 3 4 426 7 940 7 l933 0 0 -1010z"/>
<path d="M5240 4260 l0 -110 -505 0 -506 0 3 -122 3 -123 218 -3 217 -2 0 -23
c0 -49 -42 -288 -70 -404 -73 -294 -205 -619 -321 -790 -16 -23 -29 -44 -29
-47 0 -3 74 -6 164 -6 l165 0 21 30 c34 48 134 264 179 388 82 225 157 528
184 747 l13 100 133 3 132 3 -4 -478 c-4 -548 -1 -524 -102 -775 -7 -17 5 -18
157 -18 l165 0 22 73 c59 201 71 333 71 820 l0 377 140 0 140 0 0 125 0 125
-140 0 -140 0 0 110 0 110 -155 0 -155 0 0 -110z"/>
</g>
</svg>
